PathFileType	4	(X/Y/Z)	s02c0403.trc
DataRate	CameraRate	NumFrames	NumMarkers	Units	OrigDataRate	OrigDataStartFrame	OrigNumFrames
200	200	5	51	mm	200	1500	2000
Frame#	Time	racr			lacr			c7			jug			rlel			rdr			llel			ldr			s2			lic			ric			lasi			rasi			rpsi			lpsi			rgt			lgt			rth1			rth2			rth3			rth4			rlfc			rmfc			rsh1			rsh2			rsh3			rsh4			rlmal			rmmal			rcal			rtoe			rmt5			rmt1			lth1			lth2			lth4			lth3			llfc			lmfc			lsh1			lsh2			lsh3			lsh4			llmal			lmmal			lcal			ltoe			lmt5			SBIKE			LBIKE			RBIKE			
		X1	Y1	Z1	X2	Y2	Z2	X3	Y3	Z3	X4	Y4	Z4	X5	Y5	Z5	X6	Y6	Z6	X7	Y7	Z7	X8	Y8	Z8	X9	Y9	Z9	X10	Y10	Z10	X11	Y11	Z11	X12	Y12	Z12	X13	Y13	Z13	X14	Y14	Z14	X15	Y15	Z15	X16	Y16	Z16	X17	Y17	Z17	X18	Y18	Z18	X19	Y19	Z19	X20	Y20	Z20	X21	Y21	Z21	X22	Y22	Z22	X23	Y23	Z23	X24	Y24	Z24	X25	Y25	Z25	X26	Y26	Z26	X27	Y27	Z27	X28	Y28	Z28	X29	Y29	Z29	X30	Y30	Z30	X31	Y31	Z31	X32	Y32	Z32	X33	Y33	Z33	X34	Y34	Z34	X35	Y35	Z35	X36	Y36	Z36	X37	Y37	Z37	X38	Y38	Z38	X39	Y39	Z39	X40	Y40	Z40	X41	Y41	Z41	X42	Y42	Z42	X43	Y43	Z43	X44	Y44	Z44	X45	Y45	Z45	X46	Y46	Z46	X47	Y47	Z47	X48	Y48	Z48	X49	Y49	Z49	X50	Y50	Z50	X51	Y51	Z51	
1500	7.5000	761.588429	1159.908550	-115.726309	795.348206	1222.636995	-471.878408	792.298748	1243.441916	-289.522703	0.000000	0.000000	-0.000000	565.798463	992.479580	-46.168961	696.332894	877.363137	-128.775464	625.512613	1045.194561	-631.159112	697.634763	872.355745	-531.158827	243.907283	1189.846493	-338.386509	367.199230	1175.274658	-480.690415	352.696618	1141.043860	-185.070738	400.236898	1129.480162	-455.848024	404.040510	1110.790807	-217.139640	263.474614	1208.554787	-293.909775	279.170658	1226.212322	-377.185821	305.767250	1059.329234	-163.684752	316.113316	1087.170056	-521.714411	364.232160	981.130678	-151.543134	411.603427	906.342228	-152.991020	419.335558	823.316582	-131.937515	442.093772	913.837997	-175.711910	435.815609	687.142220	-164.390561	429.132117	666.718178	-266.378751	412.955746	581.497573	-138.589293	413.406280	493.092742	-151.305769	373.398981	416.882182	-145.871743	428.495274	490.671259	-187.515532	333.515897	303.949124	-148.550712	345.779826	320.159370	-228.569168	251.152839	281.076832	-189.224375	519.934740	173.286691	-192.372782	412.456965	196.352823	-130.680318	443.326712	206.462583	-235.993421	427.218622	993.884946	-518.010268	497.708709	943.645068	-508.579480	520.392414	964.000291	-488.260063	534.804710	863.104295	-509.099539	579.887372	775.630646	-481.459104	559.888275	750.714279	-375.150371	502.536759	707.131904	-502.903024	435.907173	653.763005	-488.213203	348.607549	634.192496	-498.493455	444.268435	639.234245	-450.939761	242.838939	601.890089	-495.111560	249.545415	588.868521	-415.989467	166.393085	628.466115	-454.133498	283.529046	366.941427	-437.601475	216.914894	446.424975	-505.055433	-128.133756	870.088499	-312.466884	32.877643	82.990673	-515.126061	32.968267	82.404500	-114.914800	
1501	7.5050	763.676877	1160.974593	-118.473856	794.383226	1222.914256	-474.770021	792.671718	1243.972399	-292.601595	0.000000	0.000000	-0.000000	567.633923	994.338405	-46.495791	697.319205	877.656298	-128.269323	624.618550	1044.381001	-632.907127	697.534807	872.678279	-531.705517	243.516337	1186.719454	-335.871826	365.686107	1174.797601	-479.458334	353.979659	1137.946175	-183.826447	399.541242	1129.295839	-455.357520	404.905426	1107.270424	-215.980692	263.114043	1205.662731	-291.484541	277.661637	1223.523946	-374.915906	307.042962	1055.325015	-162.653422	315.481685	1087.162767	-520.789174	362.559161	976.350422	-151.318116	408.173069	900.470868	-153.171970	413.809739	817.198171	-132.509707	438.157773	907.352098	-174.872432	426.788668	681.439635	-165.052699	418.920392	660.843745	-266.829731	404.103041	576.330113	-138.846714	405.135594	487.902020	-151.653294	365.751387	411.351880	-145.696974	420.480723	485.206228	-188.722961	326.692545	298.143356	-148.154878	338.968564	314.364239	-227.967013	244.248615	276.463872	-188.843631	511.591149	164.548566	-192.435425	404.506807	189.335946	-130.611754	434.121322	197.485052	-237.921556	428.703988	996.270476	-517.553329	500.389831	947.962288	-508.175989	522.258238	969.268016	-488.568938	539.715768	868.192016	-507.285733	587.116493	782.198437	-479.352124	566.609741	757.681906	-372.843657	509.951417	713.625868	-500.874706	443.064337	660.436204	-486.113704	355.744739	641.072311	-496.823246	451.136230	646.054291	-448.781236	249.964442	609.381759	-493.889671	256.397562	596.397226	-414.405367	172.656864	634.944696	-453.041325	293.036653	375.279073	-438.399939	225.690810	453.929348	-504.727577	-128.141354	870.068853	-312.503036	32.885819	82.962364	-515.127485	32.973198	82.394133	-114.921136	
1502	7.5100	765.898887	1162.260714	-121.342053	793.196382	1223.119986	-477.973369	793.011955	1244.471602	-295.802912	0.000000	0.000000	-0.000000	569.645442	996.469235	-46.714788	698.212528	877.960540	-127.773995	623.541686	1043.736059	-635.422831	697.481587	873.011617	-532.303972	243.098289	1184.305184	-333.535388	364.274968	1174.136041	-478.307132	355.237783	1134.859875	-182.622902	398.763488	1129.183474	-454.889576	405.561521	1103.632306	-214.695344	262.726544	1202.894417	-288.855915	276.375526	1221.612396	-372.293000	308.186959	1051.448431	-161.598477	314.668903	1087.292747	-519.722842	361.098685	972.347069	-151.124567	404.395465	895.355205	-153.112672	408.358008	811.794609	-133.014386	434.710781	901.920929	-175.631971	417.835979	676.531075	-165.667996	407.968264	656.200312	-267.260469	395.084698	571.824617	-139.210973	396.755328	483.376318	-151.731930	357.860783	406.508831	-145.396283	411.795959	480.951234	-188.558129	319.546276	293.024300	-147.684146	331.896575	309.027708	-227.359716	237.192406	272.691419	-188.415672	502.771140	156.482456	-192.447686	396.172711	182.863519	-130.596849	425.080697	189.814364	-239.186325	429.846503	998.615954	-517.335653	502.893059	952.402302	-507.632380	523.081122	974.146258	-488.679409	544.183865	873.463722	-505.959042	594.089327	789.037056	-477.488560	573.093477	764.463156	-371.358315	517.364825	720.165529	-498.566399	450.355775	667.145550	-484.227860	363.095773	647.761703	-495.196803	458.266094	652.795465	-446.773131	257.278907	616.305117	-492.535881	263.501815	603.208010	-413.061967	179.572361	640.947335	-452.333962	301.901090	381.655253	-437.086543	234.677931	460.818581	-504.354883	-128.198585	870.027723	-312.620989	32.873064	82.898550	-515.167626	32.966999	82.376589	-114.927157	
1503	7.5150	768.165421	1163.620488	-124.264159	791.978012	1223.156025	-481.193057	793.322777	1244.960728	-299.131374	0.000000	0.000000	-0.000000	571.757206	998.758117	-46.818498	699.159856	878.271282	-127.230330	622.269205	1043.050961	-638.264611	697.484477	873.407812	-533.000173	242.613498	1182.669885	-331.490992	362.675370	1173.818439	-477.472404	356.513197	1131.778148	-181.442203	397.987272	1129.111554	-454.342413	406.007165	1099.767597	-213.695681	262.495314	1200.356653	-286.276766	275.226556	1219.911061	-369.668852	309.125026	1047.839295	-160.321699	313.849540	1087.315525	-518.867227	359.347748	969.086525	-150.922188	400.541969	891.023088	-153.516759	402.892254	807.236683	-133.534799	430.866372	897.017802	-175.563987	408.896939	672.404169	-166.182222	397.769829	651.796937	-267.437989	385.811193	567.990256	-139.212208	388.031062	479.345261	-151.559901	349.879547	402.442441	-144.874372	403.037133	477.066592	-188.424361	312.193005	288.589800	-147.226247	324.571751	304.483833	-226.786775	229.840067	269.074113	-188.407812	493.526097	148.798858	-192.500162	387.415725	177.056036	-130.548993	415.847458	182.929525	-239.817301	430.772271	1001.068098	-516.942567	505.079360	956.974573	-506.859362	525.688623	979.354341	-486.464545	548.471612	879.087813	-504.747718	600.911208	796.181639	-475.863228	579.905652	771.936139	-368.919684	524.732146	726.749111	-496.691894	457.740500	673.742182	-482.384345	370.533296	654.228154	-493.657046	465.491434	659.394651	-444.878824	264.780923	622.712774	-491.235776	270.958503	609.378546	-411.746949	186.751702	646.285849	-451.010483	312.611278	388.474147	-437.645366	243.789004	467.186827	-504.096048	-128.290719	869.962012	-312.714603	32.894372	82.799944	-515.201425	32.961872	82.371669	-114.947544	
1504	7.5200	770.497402	1165.142522	-127.242334	790.548121	1223.049523	-484.571722	793.600553	1245.394963	-302.469569	0.000000	0.000000	-0.000000	574.086717	1000.898027	-46.846096	699.882477	878.766704	-126.465409	621.004419	1042.337877	-641.318338	697.456859	873.964059	-533.746198	242.492787	1180.627840	-328.541628	361.129360	1173.483317	-476.392829	358.041487	1128.996978	-180.273872	397.279548	1129.095733	-453.876171	406.274380	1095.963077	-212.947498	262.179845	1197.752295	-283.616536	274.124112	1218.011975	-367.207857	309.817281	1044.420562	-159.152121	312.988565	1087.456389	-517.872657	357.212683	966.219662	-150.251415	396.502429	887.310081	-154.058286	397.065406	803.542096	-133.676705	426.991446	892.458314	-175.984700	399.985801	668.931926	-166.480893	387.680758	648.094062	-267.697132	376.530062	564.609764	-138.996756	379.191113	476.211033	-151.149143	341.482481	398.830325	-144.313034	394.236125	473.781731	-187.913038	304.638623	284.710445	-146.786989	317.208078	300.491277	-226.207746	223.588770	265.476356	-189.062509	483.967330	141.838372	-192.367256	378.317670	171.767110	-130.378212	406.461688	176.866779	-240.480335	431.481588	1003.618706	-516.495814	507.161159	961.959046	-506.186496	526.844016	984.447272	-485.442750	552.542063	884.856859	-503.900731	607.372044	803.488207	-474.475763	586.583107	779.332363	-367.206091	531.916740	733.530397	-495.009075	465.127422	680.248451	-480.760093	377.981212	660.454454	-492.248135	473.019552	666.519506	-443.938378	272.263800	628.598891	-489.786525	278.560690	614.984281	-410.236602	193.738104	650.986413	-449.799524	323.127798	395.107005	-438.809618	253.075167	473.069167	-503.629939	-128.350747	869.934631	-312.830539	32.881257	82.758954	-515.211291	32.940257	82.372032	-114.952587	
